<svg width="55" height="57" viewBox="0 0 55 57" fill="none" xmlns="http://www.w3.org/2000/svg">
<path d="M27.5002 52.25C26.9654 52.25 26.5071 52.0917 26.1252 51.775C25.7432 51.4583 25.4568 51.0427 25.2658 50.5281C24.5401 48.3115 23.6234 46.2333 22.5158 44.2938C21.4463 42.3542 19.9377 40.0781 17.9897 37.4656C16.0418 34.8531 14.4568 32.3594 13.2345 29.9844C12.0505 27.6094 11.4585 24.7396 11.4585 21.375C11.4585 16.7437 13.0054 12.825 16.0991 9.61875C19.2311 6.37292 23.0314 4.75 27.5002 4.75C31.9689 4.75 35.7502 6.37292 38.8439 9.61875C41.9759 12.825 43.5418 16.7437 43.5418 21.375C43.5418 24.9771 42.8734 27.9854 41.5366 30.4C40.238 32.775 38.7293 35.1302 37.0106 37.4656C34.9481 40.3156 33.3821 42.6906 32.3127 44.5906C31.2814 46.451 30.422 48.4302 29.7345 50.5281C29.5436 51.0823 29.238 51.5177 28.8179 51.8344C28.4359 52.1115 27.9967 52.25 27.5002 52.25ZM27.5002 27.3125C29.1043 27.3125 30.4602 26.7385 31.5679 25.5906C32.6755 24.4427 33.2293 23.0375 33.2293 21.375C33.2293 19.7125 32.6755 18.3073 31.5679 17.1594C30.4602 16.0115 29.1043 15.4375 27.5002 15.4375C25.896 15.4375 24.5401 16.0115 23.4325 17.1594C22.3248 18.3073 21.771 19.7125 21.771 21.375C21.771 23.0375 22.3248 24.4427 23.4325 25.5906C24.5401 26.7385 25.896 27.3125 27.5002 27.3125Z" fill="#1D1B20"/>
</svg>
