<svg width="56" height="55" viewBox="0 0 56 55" fill="none" xmlns="http://www.w3.org/2000/svg">
<path d="M28.0002 27.5C25.4335 27.5 23.2363 26.6024 21.4085 24.8073C19.5807 23.0121 18.6668 20.8541 18.6668 18.3333C18.6668 15.8125 19.5807 13.6545 21.4085 11.8593C23.2363 10.0642 25.4335 9.16663 28.0002 9.16663C30.5668 9.16663 32.7641 10.0642 34.5918 11.8593C36.4196 13.6545 37.3335 15.8125 37.3335 18.3333C37.3335 20.8541 36.4196 23.0121 34.5918 24.8073C32.7641 26.6024 30.5668 27.5 28.0002 27.5ZM9.3335 45.8333V39.4166C9.3335 38.118 9.67377 36.9244 10.3543 35.8359C11.0349 34.7474 11.9391 33.9166 13.0668 33.3437C15.4779 32.1597 17.9279 31.2717 20.4168 30.6796C22.9057 30.0876 25.4335 29.7916 28.0002 29.7916C30.5668 29.7916 33.0946 30.0876 35.5835 30.6796C38.0724 31.2717 40.5224 32.1597 42.9335 33.3437C44.0613 33.9166 44.9654 34.7474 45.646 35.8359C46.3266 36.9244 46.6668 38.118 46.6668 39.4166V45.8333H9.3335ZM14.0002 41.25H42.0002V39.4166C42.0002 38.9965 41.8932 38.6145 41.6793 38.2708C41.4654 37.927 41.1835 37.6597 40.8335 37.4687C38.7335 36.4375 36.6141 35.664 34.4752 35.1484C32.3363 34.6328 30.1779 34.375 28.0002 34.375C25.8224 34.375 23.6641 34.6328 21.5252 35.1484C19.3863 35.664 17.2668 36.4375 15.1668 37.4687C14.8168 37.6597 14.5349 37.927 14.321 38.2708C14.1071 38.6145 14.0002 38.9965 14.0002 39.4166V41.25ZM28.0002 22.9166C29.2835 22.9166 30.3821 22.4678 31.296 21.5703C32.2099 20.6727 32.6668 19.5937 32.6668 18.3333C32.6668 17.0729 32.2099 15.9939 31.296 15.0963C30.3821 14.1987 29.2835 13.75 28.0002 13.75C26.7168 13.75 25.6182 14.1987 24.7043 15.0963C23.7904 15.9939 23.3335 17.0729 23.3335 18.3333C23.3335 19.5937 23.7904 20.6727 24.7043 21.5703C25.6182 22.4678 26.7168 22.9166 28.0002 22.9166Z" fill="#1D1B20"/>
</svg>
