<svg width="57" height="57" viewBox="0 0 57 57" fill="none" xmlns="http://www.w3.org/2000/svg">
<path d="M21.375 39.1875C19.7125 39.1875 18.3073 38.6135 17.1594 37.4656C16.0115 36.3177 15.4375 34.9125 15.4375 33.25C15.4375 31.5875 16.0115 30.1823 17.1594 29.0344C18.3073 27.8865 19.7125 27.3125 21.375 27.3125C23.0375 27.3125 24.4427 27.8865 25.5906 29.0344C26.7385 30.1823 27.3125 31.5875 27.3125 33.25C27.3125 34.9125 26.7385 36.3177 25.5906 37.4656C24.4427 38.6135 23.0375 39.1875 21.375 39.1875ZM11.875 52.25C10.5687 52.25 9.45052 51.7849 8.52031 50.8547C7.5901 49.9245 7.125 48.8063 7.125 47.5V14.25C7.125 12.9438 7.5901 11.8255 8.52031 10.8953C9.45052 9.9651 10.5687 9.5 11.875 9.5H14.25V4.75H19V9.5H38V4.75H42.75V9.5H45.125C46.4313 9.5 47.5495 9.9651 48.4797 10.8953C49.4099 11.8255 49.875 12.9438 49.875 14.25V47.5C49.875 48.8063 49.4099 49.9245 48.4797 50.8547C47.5495 51.7849 46.4313 52.25 45.125 52.25H11.875ZM11.875 47.5H45.125V23.75H11.875V47.5Z" fill="#1D1B20"/>
</svg>
